<svg width="275" height="275" viewBox="0 0 275 275" fill="none" xmlns="http://www.w3.org/2000/svg">
<g filter="url(#filter0_dd_25_121)">
<circle cx="137.959" cy="137.959" r="61.9585" fill="#03EF62"/>
<g filter="url(#filter1_f_25_121)">
<circle cx="137.958" cy="137.959" r="60.0521" fill="#03EF62"/>
<circle cx="137.958" cy="137.959" r="59.0989" stroke="#65FF8F" stroke-width="1.90642"/>
</g>
<path d="M169.03 157.879C171.654 157.582 173.533 155.244 173.241 152.66C172.948 150.075 170.593 148.217 167.969 148.514C165.345 148.811 163.479 151.148 163.771 153.732C164.064 156.317 166.406 158.177 169.03 157.879ZM168.837 156.178C167.162 156.368 165.686 155.187 165.499 153.537C165.312 151.886 166.486 150.406 168.162 150.216C169.837 150.026 171.326 151.205 171.513 152.855C171.7 154.506 170.513 155.988 168.837 156.178Z" fill="#05192D"/>
<path d="M174.195 147.886L175.239 157.098L176.966 156.902L176.547 153.205L180.73 152.731L180.538 151.042L176.356 151.516L176.115 149.392L180.765 148.865L180.573 147.164L174.195 147.886Z" fill="#05192D"/>
<path d="M181.971 147.005L183.014 156.217L184.742 156.021L184.323 152.324L188.506 151.85L188.314 150.161L184.132 150.635L183.891 148.511L188.541 147.984L188.348 146.283L181.971 147.005Z" fill="#05192D"/>
<path d="M165.548 125.909C167.579 125.679 169.279 124.356 170.061 122.487C170.469 121.55 170.599 120.576 170.48 119.528C170.238 117.397 168.979 115.656 167.138 114.837C166.235 114.425 165.261 114.296 164.246 114.411C162.182 114.645 160.477 115.934 159.695 117.804C159.287 118.741 159.161 119.748 159.28 120.797C159.514 122.86 160.774 124.601 162.618 125.454C163.521 125.865 164.499 126.028 165.548 125.909ZM165.234 123.136C163.61 123.32 162.243 122.139 162.055 120.482C161.867 118.825 162.936 117.368 164.56 117.184C166.15 117.004 167.518 118.185 167.705 119.842C167.893 121.499 166.824 122.956 165.234 123.136ZM181.994 137.062C184.058 136.828 185.762 135.539 186.544 133.669C186.952 132.733 187.078 131.725 186.959 130.677C186.725 128.614 185.466 126.872 183.621 126.02C182.718 125.608 181.74 125.445 180.691 125.564C178.661 125.794 176.994 127.113 176.178 128.987C175.77 129.923 175.607 130.901 175.726 131.949C175.967 134.08 177.257 135.784 179.097 136.603C180.001 137.014 180.979 137.177 181.994 137.062ZM181.68 134.289C180.089 134.469 178.722 133.288 178.534 131.631C178.346 129.974 179.415 128.517 181.005 128.337C182.629 128.153 183.997 129.334 184.185 130.991C184.372 132.648 183.304 134.105 181.68 134.289ZM177.848 112.87L165.177 138.968L168.561 138.584L181.231 112.486L177.848 112.87Z" fill="#05192D"/>
<path d="M107.631 134.823C103.885 135.217 101.413 137.091 100.178 138.338L100.408 129.312L118.031 127.458L117.198 119.537L92.8819 122.095L92.4601 145.234L99.948 146.185C100.481 144.763 102.747 142.104 106.493 141.71C110.791 141.257 114.229 144.434 114.662 148.549C115.108 152.785 112.079 156.456 107.965 156.889C104.404 157.264 100.649 154.617 100.164 151.191L91.9361 152.057C92.8113 159.787 100.299 165.456 108.773 164.565C117.553 163.641 123.71 156.661 122.806 148.064C121.941 139.836 115.429 134.002 107.631 134.823Z" fill="#05192D"/>
<path d="M125.434 140.524C126.752 153.051 133.648 161.948 145.131 160.74C156.552 159.539 161.445 149.401 160.128 136.875C158.81 124.348 151.921 115.512 140.499 116.714C129.017 117.921 124.117 127.998 125.434 140.524ZM133.54 139.671C132.694 131.628 134.879 125.251 141.326 124.573C147.774 123.895 151.115 129.69 151.961 137.734C152.807 145.778 150.751 152.202 144.304 152.88C137.856 153.559 134.386 147.715 133.54 139.671Z" fill="#05192D"/>
</g>
<defs>
<filter id="filter0_dd_25_121" x="0.934853" y="0.934853" width="274.047" height="274.047" filterUnits="userSpaceOnUse" color-interpolation-filters="sRGB">
<feFlood flood-opacity="0" result="BackgroundImageFix"/>
<feColorMatrix in="SourceAlpha" type="matrix" values="0 0 0 0 0 0 0 0 0 0 0 0 0 0 0 0 0 0 127 0" result="hardAlpha"/>
<feOffset/>
<feGaussianBlur stdDeviation="37.5326"/>
<feComposite in2="hardAlpha" operator="out"/>
<feColorMatrix type="matrix" values="0 0 0 0 0.396078 0 0 0 0 1 0 0 0 0 0.560784 0 0 0 1 0"/>
<feBlend mode="normal" in2="BackgroundImageFix" result="effect1_dropShadow_25_121"/>
<feColorMatrix in="SourceAlpha" type="matrix" values="0 0 0 0 0 0 0 0 0 0 0 0 0 0 0 0 0 0 127 0" result="hardAlpha"/>
<feOffset dy="3.22036"/>
<feGaussianBlur stdDeviation="1.61018"/>
<feComposite in2="hardAlpha" operator="out"/>
<feColorMatrix type="matrix" values="0 0 0 0 0 0 0 0 0 0 0 0 0 0 0 0 0 0 0.25 0"/>
<feBlend mode="normal" in2="effect1_dropShadow_25_121" result="effect2_dropShadow_25_121"/>
<feBlend mode="normal" in="SourceGraphic" in2="effect2_dropShadow_25_121" result="shape"/>
</filter>
<filter id="filter1_f_25_121" x="76.2956" y="76.2963" width="123.325" height="123.325" filterUnits="userSpaceOnUse" color-interpolation-filters="sRGB">
<feFlood flood-opacity="0" result="BackgroundImageFix"/>
<feBlend mode="normal" in="SourceGraphic" in2="BackgroundImageFix" result="shape"/>
<feGaussianBlur stdDeviation="0.80509" result="effect1_foregroundBlur_25_121"/>
</filter>
</defs>
</svg>
